<?xml version="1.0" standalone="no"?><!DOCTYPE svg PUBLIC "-//W3C//DTD SVG 1.1//EN" "http://www.w3.org/Graphics/SVG/1.1/DTD/svg11.dtd"><svg t="1597309461553" class="icon" viewBox="0 0 1024 1024" version="1.1" xmlns="http://www.w3.org/2000/svg" p-id="17100" xmlns:xlink="http://www.w3.org/1999/xlink" width="200" height="200"><defs><style type="text/css"></style></defs><path d="M916.1728 175.2064H390.7584c-20.2752 0-39.2192 5.7344-55.5008 15.5648 0-0.1024 0-0.1024-0.2048-0.1024-1.9456 0-20.7872 16.4864-22.9376 18.944C237.9776 281.8048 0 512 0 512l304.64 293.7856c6.7584 9.0112 28.0576 26.7264 28.9792 26.7264 0.1024 0 0.1024-0.1024 0.1024-0.1024 16.4864 10.3424 36.1472 16.384 57.0368 16.384h525.5168c59.1872 0 107.8272-48.4352 107.8272-108.2368V283.4432c-0.1024-59.8016-48.3328-108.2368-107.9296-108.2368z m53.9648 565.3504c0 30.0032-24.1664 54.3744-53.8624 54.3744H390.7584c-9.728 0-19.2512-2.6624-27.5456-7.5776-4.5056-3.6864-13.312-11.5712-15.4624-14.0288l-2.56-3.3792-3.072-2.9696L77.6192 512c71.168-68.8128 217.1904-210.2272 272.6912-264.3968 1.9456-1.9456 7.0656-6.4512 11.0592-9.728l1.7408-1.024c8.3968-5.0176 17.92-7.7824 27.648-7.7824h525.5168c29.696 0 53.8624 24.3712 53.8624 54.3744v457.1136zM694.0672 522.24l71.4752-71.5776c12.9024-12.8 13.0048-34.4064-0.1024-47.5136-13.2096-13.2096-34.4064-13.2096-47.5136-0.1024l-71.5776 71.5776-71.5776-71.5776c-12.8-12.8-34.304-13.0048-47.5136 0.1024-13.2096 13.312-13.2096 34.5088-0.1024 47.5136l71.5776 71.5776-71.5776 71.5776c-12.9024 12.8-13.0048 34.4064 0.1024 47.5136 13.2096 13.2096 34.4064 13.2096 47.5136 0.1024l71.5776-71.5776 71.5776 71.5776c12.8 12.8 34.4064 13.0048 47.5136-0.1024 13.2096-13.312 13.2096-34.4064 0.1024-47.5136L694.0672 522.24z" fill="#333333" p-id="17101"></path></svg>