<?xml version="1.0" standalone="no"?><!DOCTYPE svg PUBLIC "-//W3C//DTD SVG 1.1//EN" "http://www.w3.org/Graphics/SVG/1.1/DTD/svg11.dtd"><svg t="1596445247511" class="icon" viewBox="0 0 1024 1024" version="1.1" xmlns="http://www.w3.org/2000/svg" p-id="593" xmlns:xlink="http://www.w3.org/1999/xlink" width="200" height="200"><defs><style type="text/css"></style></defs><path d="M232.983 506.922c0-10.75099999 4.095-21.502 12.287-29.182l466.394-466.394c16.382-15.87 42.49200001-14.847 58.363 1.536 15.359 15.87 15.359 40.957 0 56.827l-466.394 466.395c-15.87 15.87-41.98 15.87-58.363 0-8.192-7.68-12.287-18.43-12.287-29.182" p-id="594"></path><path d="M232.983 506.922c0-22.526 17.918-41.46899999 40.956-41.469 11.263 0 22.015 4.096 29.694 12.287L780.266 954.886c15.359 16.894 14.335 43.004-2.56 58.363-15.87 14.335-39.932 14.335-55.803 0l-477.145-477.145c-7.68-7.68-11.775-18.43-11.775-29.182" p-id="595"></path></svg>