<?xml version="1.0" standalone="no"?><!DOCTYPE svg PUBLIC "-//W3C//DTD SVG 1.1//EN" "http://www.w3.org/Graphics/SVG/1.1/DTD/svg11.dtd"><svg t="1596346103189" class="icon" viewBox="0 0 1024 1024" version="1.1" xmlns="http://www.w3.org/2000/svg" p-id="5361" xmlns:xlink="http://www.w3.org/1999/xlink" width="200" height="200"><defs><style type="text/css"></style></defs><path d="M791.017372 517.078065c0 10.751128-4.095668 21.502256-12.287004 29.181633L312.336193 1012.653874c-16.382671 15.870713-42.492554 14.846796-58.363267-1.535876-15.358754-15.870713-15.358754-40.956678 0-56.827391l466.394175-466.394175c15.870713-15.870713 41.980595-15.870713 58.363267 0 8.191336 7.679377 12.287004 18.430505 12.287004 29.181633" p-id="5362"></path><path d="M791.017372 517.078065c0 22.526173-17.918547 41.468637-40.956679 41.468637-11.263087 0-22.014215-4.095668-29.693592-12.287004L243.733756 69.114395c-15.358754-16.89463-14.334837-43.004512 2.559793-58.363267 15.870713-14.334837 39.932761-14.334837 55.803474 0l477.145304 477.145304c7.679377 7.679377 11.775045 18.430505 11.775045 29.181633" p-id="5363"></path></svg>